<svg width="40" height="40" viewBox="0 0 40 40" fill="none" xmlns="http://www.w3.org/2000/svg">
<path d="M28.335 5.15994L28.5275 5.54244L29.9675 9.37494C30.08 9.67494 30.3175 9.91494 30.62 10.0274L34.32 11.4174C35.945 12.0249 36.8175 13.7599 36.385 15.4024L36.28 15.7274L34.56 19.5349C34.4938 19.6801 34.4595 19.8379 34.4595 19.9974C34.4595 20.157 34.4938 20.3147 34.56 20.4599L36.195 24.0599C36.5371 24.8145 36.5874 25.6692 36.3362 26.4587C36.0851 27.2482 35.5502 27.9167 34.835 28.3349L34.4525 28.5274L30.62 29.9674C30.4715 30.0238 30.3367 30.1111 30.2246 30.2236C30.1126 30.3361 30.0258 30.4712 29.97 30.6199L28.58 34.3199C28.289 35.0968 27.7201 35.738 26.9835 36.1194C26.2468 36.5009 25.3949 36.5955 24.5925 36.3849L24.2675 36.2799L20.46 34.5599C20.3148 34.4937 20.1571 34.4595 19.9975 34.4595C19.8379 34.4595 19.6802 34.4937 19.535 34.5599L15.9375 36.1949C15.1829 36.537 14.3283 36.5873 13.5387 36.3362C12.7492 36.085 12.0807 35.5502 11.6625 34.8349L11.47 34.4524L10.0275 30.6199C9.97116 30.4715 9.88383 30.3367 9.77132 30.2246C9.6588 30.1125 9.52369 30.0257 9.37499 29.9699L5.67499 28.5799C4.89817 28.2889 4.25696 27.72 3.87548 26.9834C3.49401 26.2468 3.3994 25.3948 3.60999 24.5924L3.71499 24.2674L5.43749 20.4599C5.50352 20.3147 5.53769 20.157 5.53769 19.9974C5.53769 19.8379 5.50352 19.6802 5.43749 19.5349L3.79999 15.9374C3.45768 15.1831 3.40699 14.3287 3.65769 13.5392C3.90839 12.7497 4.44271 12.0811 5.15749 11.6624L5.53999 11.4699L9.37499 10.0249C9.52394 9.96891 9.65921 9.88171 9.77173 9.76918C9.88426 9.65666 9.97146 9.52139 10.0275 9.37244L11.4175 5.67244C11.7085 4.89616 12.277 4.25535 13.013 3.87392C13.7491 3.4925 14.6005 3.39755 15.4025 3.60744L15.7275 3.71244L19.535 5.43494C19.6802 5.50097 19.8379 5.53514 19.9975 5.53514C20.157 5.53514 20.3147 5.50097 20.46 5.43494L24.06 3.79994C24.8143 3.45763 25.6687 3.40694 26.4582 3.65764C27.2477 3.90835 27.9163 4.44267 28.335 5.15744V5.15994ZM25.41 14.2624L17.4425 23.3624L14.5375 20.4574C14.3264 20.2555 14.0447 20.1442 13.7526 20.1474C13.4605 20.1506 13.1813 20.2681 12.9747 20.4747C12.7682 20.6812 12.6507 20.9604 12.6475 21.2525C12.6443 21.5446 12.7555 21.8264 12.9575 22.0374L16.7075 25.7874C16.8157 25.8954 16.9449 25.98 17.0872 26.036C17.2294 26.0921 17.3816 26.1183 17.5344 26.1132C17.6872 26.108 17.8373 26.0716 17.9754 26.0061C18.1136 25.9406 18.2368 25.8475 18.3375 25.7324L27.0875 15.7324C27.2657 15.5075 27.3505 15.2227 27.3244 14.937C27.2983 14.6512 27.1634 14.3865 26.9474 14.1975C26.7315 14.0086 26.4511 13.9099 26.1645 13.922C25.8778 13.9341 25.6068 14.056 25.4075 14.2624H25.41Z" fill="#F0D8A8"/>
</svg>
