<svg width="1102" height="1228" viewBox="0 0 1102 1228" fill="none" xmlns="http://www.w3.org/2000/svg">
<path d="M1026.02 254.55L625.23 23.07C579.51 -3.39002 523.14 -3.39002 477.45 23.07L76.4203 254.55C30.7303 280.8 2.78027 329.72 2.78027 382.44V845.4C2.78027 898.12 30.7403 946.83 76.4203 973.3L477.46 1204.78C523.14 1231.04 579.51 1231.04 625.24 1204.78L1026.03 973.3C1071.71 946.83 1099.92 898.13 1099.92 845.4V382.44C1099.92 329.72 1071.71 280.8 1026.03 254.55H1026.02ZM551.3 102.55C604.94 102.55 648.38 146.04 648.38 199.63C648.38 253.22 552.62 608.95 551.34 613.84L551.3 613.88C551.3 613.88 454.22 253.26 454.22 199.63C454.22 146 497.71 102.55 551.3 102.55ZM108.47 358.21C135.27 311.78 194.66 295.88 241.09 322.67C287.06 349.22 546.12 608.74 551.18 613.83C545.63 612.38 190.07 517.41 144.01 490.82C97.5803 464.02 81.6803 404.63 108.47 358.2V358.21ZM551.26 1125.17C497.67 1125.17 454.18 1081.72 454.18 1028.09C454.18 974.46 549.77 619.51 551.22 613.96C547.16 617.98 287.15 878.45 241.09 905.08C194.66 931.88 135.27 915.97 108.47 869.54C81.6703 823.07 97.5803 763.72 144.01 736.92C190.11 710.25 546.33 615.2 551.22 613.91L551.26 613.87C551.26 613.87 648.34 974.49 648.34 1028.08C648.34 1081.67 604.89 1125.16 551.26 1125.16V1125.17ZM994.13 869.55C967.29 915.98 907.94 931.88 861.51 905.09C815.46 878.46 555.4 617.99 551.34 613.93C556.23 615.21 912.49 710.27 958.59 736.94C1005.02 763.74 1020.92 823.09 994.12 869.56L994.13 869.55ZM958.6 490.83C912.54 517.42 556.94 612.39 551.39 613.84C556.44 608.75 815.55 349.23 861.52 322.68C907.95 295.88 967.3 311.79 994.14 358.22C1020.94 404.65 1005.03 464.04 958.61 490.84L958.6 490.83Z" fill="#F0D8A8"/>
</svg>
